<svg width="256" height="256" viewBox="0 0 256 256" fill="none" xmlns="http://www.w3.org/2000/svg">
  <path fill-rule="evenodd" clip-rule="evenodd" d="M98.4275 50C98.618 50.0001 98.8088 50.0001 99.0001 50.0001H142V84.0001H99.0001C93.119 84.0001 89.7307 84.0133 87.2484 84.2161C86.2336 84.299 85.6729 84.3962 85.4209 84.4493C85.0263 84.6936 84.6936 85.0263 84.4493 85.4209C84.3962 85.6729 84.299 86.2336 84.2161 87.2484C84.0133 89.7307 84.0001 93.119 84.0001 99.0001V142H50.0001V99.0001C50.0001 98.8088 50.0001 98.618 50 98.4275C49.9996 93.3207 49.9991 88.5171 50.329 84.4798C50.6874 80.0934 51.5183 75.1375 54.0328 70.2024C57.5801 63.2404 63.2404 57.5801 70.2024 54.0328C75.1375 51.5183 80.0934 50.6874 84.4798 50.329C88.5171 49.9991 93.3207 49.9996 98.4275 50ZM172 157L172 114H206L206 157.573C206.001 162.68 206.001 167.483 205.671 171.52C205.313 175.907 204.482 180.863 201.967 185.798C198.42 192.76 192.76 198.42 185.798 201.967C180.863 204.482 175.907 205.313 171.52 205.671C167.483 206.001 162.68 206.001 157.573 206L114 206V172H157C162.881 172 166.269 171.987 168.752 171.784C169.767 171.701 170.327 171.604 170.579 171.551C170.974 171.307 171.307 170.974 171.551 170.579C171.604 170.327 171.701 169.767 171.784 168.752C171.987 166.269 172 162.881 172 157Z" fill="#3EBEF1"/>
  <rect x="166" y="90" width="40" height="40" transform="rotate(-90 166 90)" fill="#8C3EDF"/>
  <rect x="50" y="206" width="40" height="40" transform="rotate(-90 50 206)" fill="#8C3EDF"/>
</svg>
